<svg width="64" height="64" xmlns="http://www.w3.org/2000/svg">
    <path id="svg_2" d="m32,0c-17.6,0 -32,14.4 -32,32s14.4,32 32,32s32,-14.4 32,-32s-14.4,-32 -32,-32zm0,61.8c-16.4,0 -29.8,-13.4 -29.8,-29.8s13.4,-29.8 29.8,-29.8s29.8,13.4 29.8,29.8s-13.4,29.8 -29.8,29.8z"/>
    <path id="svg_3" d="m32,5.9c-14.4,0 -26.1,11.7 -26.1,26.1s11.7,26.1 26.1,26.1s26.1,-11.7 26.1,-26.1s-11.7,-26.1 -26.1,-26.1zm1.1,49.9l0,-3.1c0,-0.6 -0.5,-1.1 -1.1,-1.1s-1.1,0.5 -1.1,1.1l0,3.1c-12.3,-0.5 -22.2,-10.4 -22.7,-22.7l3.1,0c0.6,0 1.1,-0.5 1.1,-1.1s-0.5,-1.1 -1.1,-1.1l-3.1,0c0.5,-12.3 10.4,-22.2 22.7,-22.7l0,3.1c0,0.6 0.5,1.1 1.1,1.1s1.1,-0.5 1.1,-1.1l0,-3.1c12.3,0.6 22.2,10.5 22.7,22.7l-3.1,0c-0.6,0 -1.1,0.5 -1.1,1.1s0.5,1.1 1.1,1.1l3.1,0c-0.5,12.3 -10.4,22.2 -22.7,22.7z"/>
    <path id="svg_4" d="m32,28.3c-2,0 -3.7,1.6 -3.7,3.7s1.6,3.7 3.7,3.7s3.7,-1.6 3.7,-3.7s-1.7,-3.7 -3.7,-3.7zm0,5.2c-0.8,0 -1.5,-0.7 -1.5,-1.5s0.7,-1.5 1.5,-1.5s1.5,0.7 1.5,1.5s-0.7,1.5 -1.5,1.5z"/>
    <path id="svg_5" d="m49.6,31l-11.9,-4.6l-4.6,-12c-0.2,-0.4 -0.6,-0.7 -1,-0.7c-0.5,0 -0.9,0.3 -1,0.7l-4.6,12l-12,4.6c-0.4,0.2 -0.7,0.6 -0.7,1c0,0.5 0.3,0.9 0.7,1l12,4.6l4.5,12c0.2,0.4 0.6,0.7 1,0.7l0,0c0.5,0 0.9,-0.3 1,-0.7l4.6,-12l12,-4.6c0.4,-0.2 0.7,-0.6 0.7,-1c0,-0.4 -0.3,-0.9 -0.7,-1zm-13.2,4.7c-0.3,0.1 -0.5,0.3 -0.6,0.6l-3.8,9.8l-3.7,-9.7c-0.1,-0.3 -0.3,-0.5 -0.6,-0.6l-9.8,-3.8l9.8,-3.7c0.3,-0.1 0.5,-0.3 0.6,-0.6l3.7,-9.8l3.7,9.8c0.1,0.3 0.3,0.5 0.6,0.6l9.7,3.7l-9.6,3.7z"/>
</svg>